<?xml version="1.0" encoding="utf-8"?>
<!-- Generator: Adobe Illustrator 25.2.0, SVG Export Plug-In . SVG Version: 6.00 Build 0)  -->
<svg version="1.1" id="Layer_3" xmlns="http://www.w3.org/2000/svg" xmlns:xlink="http://www.w3.org/1999/xlink" x="0px" y="0px"
	 viewBox="0 0 512 512" style="enable-background:new 0 0 512 512;" xml:space="preserve">
<style type="text/css">
	.st0{fill:#FFFFFF;}
</style>
<g>
	<path class="st0" d="M256,184c-39.7,0-72,32.3-72,72s32.3,72,72,72s72-32.3,72-72S295.7,184,256,184z M256,312
		c-30.9,0-56-25.1-56-56s25.1-56,56-56s56,25.1,56,56S286.9,312,256,312z"/>
	<path class="st0" d="M432,136h64c4.4,0,8-3.6,8-8V64c0-4.4-3.6-8-8-8h-64c-4.4,0-8,3.6-8,8v24h-24c-4.4,0-8,3.6-8,8v152h-8v-8
		c0-4-3-7.4-6.9-7.9l-20.5-2.7c-2.4-8.9-5.9-17.5-10.6-25.5l12.6-16.5c2.4-3.2,2.1-7.7-0.7-10.5l-22.6-22.6
		c-2.8-2.8-7.3-3.1-10.5-0.7l-16.5,12.6c-8.1-4.7-16.6-8.3-25.5-10.6l-2.7-20.5c-0.5-4-3.9-6.9-7.9-6.9h-32c-4,0-7.4,3-7.9,6.9
		l-2.7,20.5c-8.9,2.4-17.5,5.9-25.5,10.6l-16.5-12.6c-3.2-2.4-7.7-2.1-10.5,0.7l-22.6,22.6c-2.8,2.8-3.1,7.3-0.7,10.5l12.6,16.5
		c-4.7,8.1-8.3,16.6-10.6,25.5l-20.5,2.7c-4,0.5-6.9,3.9-6.9,7.9v8h-8V96c0-4.4-3.6-8-8-8H88V64c0-4.4-3.6-8-8-8H16
		c-4.4,0-8,3.6-8,8v64c0,4.4,3.6,8,8,8h64c4.4,0,8-3.6,8-8v-24h16v144H88v-24c0-4.4-3.6-8-8-8H16c-4.4,0-8,3.6-8,8v64
		c0,4.4,3.6,8,8,8h64c4.4,0,8-3.6,8-8v-24h16v144H88v-24c0-4.4-3.6-8-8-8H16c-4.4,0-8,3.6-8,8v64c0,4.4,3.6,8,8,8h64
		c4.4,0,8-3.6,8-8v-24h24c4.4,0,8-3.6,8-8V264h8v8c0,4,3,7.4,6.9,7.9l20.5,2.7c2.4,8.9,5.9,17.5,10.6,25.5l-12.6,16.5
		c-2.4,3.2-2.1,7.7,0.7,10.5l22.6,22.6c2.8,2.8,7.3,3.1,10.5,0.7l16.5-12.6c8.1,4.7,16.6,8.3,25.5,10.6l2.7,20.5
		c0.5,4,3.9,6.9,7.9,6.9h32c4,0,7.4-3,7.9-6.9l2.7-20.5c8.9-2.4,17.5-5.9,25.5-10.6l16.5,12.6c3.2,2.4,7.7,2.1,10.5-0.7l22.6-22.6
		c2.8-2.8,3.1-7.3,0.7-10.5l-12.6-16.5c4.7-8.1,8.3-16.6,10.6-25.5l20.5-2.7c4-0.5,6.9-3.9,6.9-7.9v-8h8v152c0,4.4,3.6,8,8,8h24v24
		c0,4.4,3.6,8,8,8h64c4.4,0,8-3.6,8-8v-64c0-4.4-3.6-8-8-8h-64c-4.4,0-8,3.6-8,8v24h-16V264h16v24c0,4.4,3.6,8,8,8h64
		c4.4,0,8-3.6,8-8v-64c0-4.4-3.6-8-8-8h-64c-4.4,0-8,3.6-8,8v24h-16V104h16v24C424,132.4,427.6,136,432,136z M440,72h48v48h-48V72z
		 M72,120H24V72h48V120z M72,280H24v-48h48V280z M72,440H24v-48h48V440z M368,265l-19,2.5c-3.4,0.4-6.1,3-6.8,6.3
		c-2.2,10.8-6.5,21.1-12.7,30.4c-1.9,2.8-1.7,6.6,0.3,9.3l11.7,15.3l-12.7,12.7l-15.3-11.7c-2.7-2.1-6.4-2.2-9.3-0.3
		c-9.4,6.2-19.6,10.4-30.4,12.7c-3.3,0.7-5.9,3.4-6.3,6.8l-2.5,19h-18l-2.5-19c-0.4-3.4-3-6.1-6.3-6.8c-10.8-2.2-21.1-6.5-30.4-12.7
		c-2.8-1.9-6.5-1.7-9.3,0.3l-15.3,11.7l-12.7-12.7l11.7-15.3c2.1-2.7,2.2-6.4,0.3-9.3c-6.2-9.4-10.4-19.6-12.7-30.4
		c-0.7-3.3-3.4-5.9-6.8-6.3l-19-2.5v-18l19-2.5c3.4-0.4,6.1-3,6.8-6.3c2.2-10.8,6.5-21.1,12.7-30.4c1.9-2.8,1.7-6.6-0.3-9.3
		l-11.7-15.3l12.7-12.7l15.3,11.7c2.7,2.1,6.4,2.2,9.3,0.3c9.4-6.2,19.6-10.4,30.4-12.7c3.3-0.7,5.9-3.4,6.3-6.8l2.5-19h18l2.5,19
		c0.4,3.4,3,6.1,6.3,6.8c10.8,2.2,21.1,6.5,30.4,12.7c2.8,1.9,6.6,1.7,9.3-0.3l15.3-11.7l12.7,12.7l-11.7,15.3
		c-2.1,2.7-2.2,6.4-0.3,9.3c6.2,9.4,10.4,19.6,12.7,30.4c0.7,3.3,3.4,5.9,6.8,6.3l19,2.5V265z M440,392h48v48h-48V392z M440,232h48
		v48h-48V232z"/>
</g>
</svg>
