<svg id="Capa_1" enable-background="new 0 0 512 512" height="512" viewBox="0 0 512 512" width="512" xmlns="http://www.w3.org/2000/svg"><g><circle cx="256" cy="333.151" r="10"/><path d="m471.922 28.952h-431.844c-22.099 0-40.078 17.979-40.078 40.078v279.756c0 22.099 17.979 40.078 40.078 40.078h160.842l-11.216 34.495c-14.189 2.4-25.032 14.769-25.032 29.63 0 16.574 13.484 30.059 30.059 30.059h122.536c16.574 0 30.059-13.484 30.059-30.059 0-14.861-10.843-27.23-25.032-29.63l-11.216-34.495h160.842c22.099 0 40.078-17.979 40.078-40.078v-279.756c.002-22.099-17.977-40.078-40.076-40.078zm-144.634 424.038c0 5.525-4.495 10.02-10.02 10.02h-122.536c-5.524 0-10.02-4.495-10.02-10.02s4.495-10.02 10.02-10.02h122.536c5.525 0 10.02 4.495 10.02 10.02zm-26.204-30.059h-90.168l11.076-34.067h68.016zm190.877-74.145c0 11.049-8.989 20.039-20.039 20.039h-431.844c-11.05 0-20.039-8.99-20.039-20.039v-279.756c0-11.049 8.989-20.039 20.039-20.039h431.843c11.05 0 20.039 8.99 20.039 20.039v279.756z"/><path d="m441.257 74.646h-370.514c-13.812 0-25.049 11.237-25.049 25.049v218.427c0 13.812 11.237 25.049 25.049 25.049h140.344c5.533 0 10.02-4.486 10.02-10.02s-4.486-10.02-10.02-10.02h-140.344c-2.762 0-5.01-2.248-5.01-5.01v-218.426c0-2.762 2.248-5.01 5.01-5.01h370.515c2.762 0 5.01 2.248 5.01 5.01v218.427c0 2.762-2.248 5.01-5.01 5.01h-140.345c-5.533 0-10.02 4.486-10.02 10.02s4.486 10.02 10.02 10.02h140.344c13.812 0 25.049-11.237 25.049-25.049v-218.428c0-13.812-11.237-25.049-25.049-25.049z"/><path d="m197.955 172.773v-33.229c0-13.812-11.237-25.049-25.049-25.049h-53.893c-13.812 0-25.049 11.237-25.049 25.049v33.229c0 13.812 11.237 25.049 25.049 25.049h53.893c13.812-.001 25.049-11.237 25.049-25.049zm-20.039 0c0 2.762-2.248 5.01-5.01 5.01h-53.893c-2.762 0-5.01-2.248-5.01-5.01v-33.229c0-2.762 2.248-5.01 5.01-5.01h53.893c2.762 0 5.01 2.248 5.01 5.01z"/><path d="m411.683 218.387c-.927-3.457-3.627-6.159-7.085-7.085l-73.554-19.708c-3.46-.929-7.147.062-9.678 2.593s-3.52 6.221-2.593 9.679l19.708 73.554c.927 3.457 3.627 6.158 7.085 7.085 3.461.928 7.147-.063 9.678-2.593l5.668-5.668 26.739 26.739c1.88 1.879 4.428 2.934 7.085 2.934s5.205-1.056 7.085-2.935l28.34-28.34c3.913-3.913 3.913-10.257 0-14.17l-26.74-26.738 5.668-5.668c2.532-2.532 3.521-6.221 2.594-9.679zm-2.777 49.17-14.169 14.17-26.739-26.739c-1.957-1.956-4.521-2.934-7.085-2.934s-5.128.978-7.085 2.934l-.481.482-10.726-40.028 40.028 10.726-.481.481c-3.913 3.913-3.913 10.257 0 14.17z"/><path d="m222.126 146.138h61.802c5.533 0 10.02-4.486 10.02-10.02s-4.486-10.02-10.02-10.02h-61.802c-5.533 0-10.02 4.486-10.02 10.02s4.487 10.02 10.02 10.02z"/><path d="m222.126 186.216h61.802c5.533 0 10.02-4.486 10.02-10.02s-4.486-10.02-10.02-10.02h-61.802c-5.533 0-10.02 4.486-10.02 10.02s4.487 10.02 10.02 10.02z"/><path d="m222.126 243.594h61.802c5.533 0 10.02-4.486 10.02-10.02s-4.486-10.02-10.02-10.02h-61.802c-5.533 0-10.02 4.486-10.02 10.02.001 5.534 4.487 10.02 10.02 10.02z"/><path d="m293.948 273.653c0-5.534-4.486-10.02-10.02-10.02h-61.802c-5.533 0-10.02 4.486-10.02 10.02s4.486 10.02 10.02 10.02h61.802c5.534-.001 10.02-4.487 10.02-10.02z"/><path d="m104.296 254.602c0 22.973 18.69 41.663 41.663 41.663s41.663-18.69 41.663-41.663c0-22.974-18.69-41.664-41.663-41.664s-41.663 18.691-41.663 41.664zm63.287 0c0 11.924-9.701 21.624-21.624 21.624s-21.624-9.701-21.624-21.624c0-11.924 9.701-21.625 21.624-21.625s21.624 9.701 21.624 21.625z"/></g></svg>