<svg id="outline" height="512" viewBox="0 0 512 512" width="512" xmlns="http://www.w3.org/2000/svg"><path d="m472 88h-40v16h40a8.00917 8.00917 0 0 1 8 8v216a8.00917 8.00917 0 0 1 -8 8h-432a8.00917 8.00917 0 0 1 -8-8v-216a8.00917 8.00917 0 0 1 8-8h40v-16h-40a24.0275 24.0275 0 0 0 -24 24v216a24.0275 24.0275 0 0 0 24 24h168v64h-40a7.99977 7.99977 0 0 0 -8 8v32a7.99977 7.99977 0 0 0 8 8h176a7.99977 7.99977 0 0 0 8-8v-32a7.99977 7.99977 0 0 0 -8-8h-40v-64h168a24.0275 24.0275 0 0 0 24-24v-216a24.0275 24.0275 0 0 0 -24-24zm-136 360h-160v-16h160zm-48-32h-64v-64h24v24a8 8 0 0 0 16 0v-24h24z"/><circle cx="48" cy="120" r="8"/><path d="m48 272h16v16h-16z"/><path d="m448 272h16v16h-16z"/><path d="m392 48h-110.11133a36.7453 36.7453 0 0 0 -25.88867 10.55176 36.7453 36.7453 0 0 0 -25.88867-10.55176h-110.11133a24.02687 24.02687 0 0 0 -24 24v200h-16v16h352v-16h-16v-200a24.02687 24.02687 0 0 0 -24-24zm-280 24a8.00917 8.00917 0 0 1 8-8h110.11133a20.812 20.812 0 0 1 17.88867 10.06134v77.93866h16v-77.93866a20.812 20.812 0 0 1 17.88867-10.06134h110.11133a8.00917 8.00917 0 0 1 8 8v200h-136v-104.001h-16v104.001h-136z"/><path d="m224 80h-88a7.99977 7.99977 0 0 0 -8 8v160a7.99977 7.99977 0 0 0 8 8h88a7.99977 7.99977 0 0 0 8-8v-160a7.99977 7.99977 0 0 0 -8-8zm-8 16v16h-72v-16zm-40 96h40v16h-40zm0-16v-16h40v16zm0-32v-16h40v16zm-32-16h16v112h-16zm32 112v-16h40v16z"/><path d="m296 80h16v16h-16z"/><path d="m328 80h48v16h-48z"/><path d="m280 112h56v16h-56z"/><path d="m352 112h24v16h-24z"/><path d="m280 176h64v16h-64z"/><path d="m360 176h16v16h-16z"/><path d="m280 144h24v16h-24z"/><path d="m320 144h56v16h-56z"/><path d="m280 208h32v16h-32z"/><path d="m328 208h48v16h-48z"/><path d="m280 240h56v16h-56z"/><path d="m352 240h24v16h-24z"/></svg>