<svg id="Layer_1" enable-background="new 0 0 511.902 511.902" height="512" viewBox="0 0 511.902 511.902" width="512" xmlns="http://www.w3.org/2000/svg"><g><path d="m497 481.535h-17.134v-197.684c0-8.284-6.716-15-15-15h-64.266c-8.284 0-15 6.716-15 15v197.684h-34.267v-123.476c0-8.284-6.716-15-15-15h-64.267c-8.284 0-15 6.716-15 15v123.476h-34.266v-49.267c0-8.284-6.716-15-15-15h-64.267c-8.284 0-15 6.716-15 15v49.267h-34.266v-231.462c79.121 22.506 161.908-40.553 160.666-123.073-6.404-168.858-248.546-168.831-254.933.003 0 47.302 25.902 88.667 64.267 110.663v258.869c0 8.284 6.716 15 15 15h417.733c19.753-.681 19.985-29.223 0-30zm-467-354.533c0-53.743 43.724-97.467 97.467-97.467 129.125 4.9 129.09 190.053-.001 194.933-53.742 0-97.466-43.723-97.466-97.466zm162.8 354.533h-34.267v-34.267h34.267zm128.533 0h-34.267v-108.476h34.267zm128.533 0h-34.266v-182.684h34.267v182.684z"/><path d="m175.667 142.002c19.877-.737 19.869-29.267 0-30h-33.2v-49.267c-.727-19.858-29.262-19.887-30 0v64.266c0 8.284 6.716 15 15 15h48.2z"/><path d="m417.117 169.132 8.903 2.389-289.987 167.424c-7.175 4.142-9.633 13.316-5.49 20.49 3.524 6.104 12.294 10.222 20.49 5.49l290.004-167.433-2.389 8.944c-2.139 8.004 2.616 16.226 10.619 18.364 8.395 2.242 16.332-3.012 18.363-10.62l11.728-43.894c2.138-7.998-2.608-16.214-10.604-18.359l-43.861-11.769c-19.373-4.442-26.789 23.107-7.776 28.974z"/></g></svg>