<svg xmlns="http://www.w3.org/2000/svg" width="457.114" height="121.78" viewBox="0 0 457.114 121.78"><g transform="translate(-39.068 254.388)"><g transform="translate(39.818 -213.693)"><g transform="translate(7.093 0)"><g transform="translate(7.51)"><rect width="17.957" height="22.732" transform="translate(31.963 39.705)" fill="none" stroke="#92999c" stroke-linecap="round" stroke-linejoin="round" stroke-width="1.5"/><rect width="17.957" height="11.561" transform="translate(31.963 28.145)" fill="none" stroke="#92999c" stroke-linecap="round" stroke-linejoin="round" stroke-width="1.5"/><path d="M342.74 86.243l12.57-23.156 12.57 23.156" transform="translate(-314.368 -58.098)" fill="none" stroke="#92999c" stroke-linecap="round" stroke-linejoin="round" stroke-width="1.5"/><g transform="translate(37.285 16.965)"><path d="M412.878 153.914h-7.314l3.6-6.409z" transform="translate(-405.564 -147.505)" fill="none" stroke="#92999c" stroke-linecap="round" stroke-linejoin="round" stroke-width="1.5"/></g><line y1="4.988" transform="translate(40.942)" fill="none" stroke="#92999c" stroke-linecap="round" stroke-linejoin="round" stroke-width="1.5"/><path d="M2.442.0h0A2.442 2.442.0 014.884 2.442v8.979a0 0 0 010 0H0a0 0 0 010 0V2.442A2.442 2.442.0 012.442.0z" transform="translate(38.499 51.016)" fill="none" stroke="#92999c" stroke-linecap="round" stroke-linejoin="round" stroke-width="1.5"/><g transform="translate(36.293 32.074)"><line y1="3.702" fill="none" stroke="#92999c" stroke-linejoin="round" stroke-width="1.5"/><line y1="3.702" transform="translate(4.648)" fill="none" stroke="#92999c" stroke-linejoin="round" stroke-width="1.5"/><line y1="3.702" transform="translate(9.297)" fill="none" stroke="#92999c" stroke-linejoin="round" stroke-width="1.5"/></g><g transform="translate(0 13.665)"><rect width="12.929" height="22.732" transform="translate(31.963 48.773) rotate(-180)" fill="none" stroke="#92999c" stroke-linecap="round" stroke-linejoin="round" stroke-width="1.5"/><rect width="12.929" height="11.561" transform="translate(19.034 14.479)" fill="none" stroke="#92999c" stroke-linecap="round" stroke-linejoin="round" stroke-width="1.5"/><path d="M231.356 330.532h6.464V307.8l-6.464 1.948z" transform="translate(-218.786 -281.76)" fill="none" stroke="#92999c" stroke-linecap="round" stroke-linejoin="round" stroke-width="1.5"/><path d="M231.356 239.819l6.464-1.948V226.31l-6.464 1.039z" transform="translate(-218.786 -211.831)" fill="none" stroke="#92999c" stroke-linecap="round" stroke-linejoin="round" stroke-width="1.5"/><rect width="6.464" height="20.784" transform="translate(12.57 48.773) rotate(-180)" fill="none" stroke="#92999c" stroke-linecap="round" stroke-linejoin="round" stroke-width="1.5"/><rect width="6.464" height="12.47" transform="translate(12.57 27.989) rotate(-180)" fill="none" stroke="#92999c" stroke-linecap="round" stroke-linejoin="round" stroke-width="1.5"/><path d="M178.986 124.248l-25.314 11.691-10.918 3.828h6.105" transform="translate(-142.755 -124.248)" fill="none" stroke="#92999c" stroke-linecap="round" stroke-linejoin="round" stroke-width="1.5"/><g transform="translate(23.174 18.474)"><line y1="3.572" fill="none" stroke="#92999c" stroke-linejoin="round" stroke-width="1.5"/><line y1="3.572" transform="translate(4.648)" fill="none" stroke="#92999c" stroke-linejoin="round" stroke-width="1.5"/></g><line y1="3.572" transform="translate(9.338 19.968)" fill="none" stroke="#92999c" stroke-linejoin="round" stroke-width="1.5"/><line y1="3.572" transform="translate(15.802 19.448)" fill="none" stroke="#92999c" stroke-linejoin="round" stroke-width="1.5"/><g transform="translate(23.174 32.763)"><g transform="translate(0 5.716)"><line y1="3.572" fill="none" stroke="#92999c" stroke-linejoin="round" stroke-width="1.5"/><line y1="3.572" transform="translate(4.648)" fill="none" stroke="#92999c" stroke-linejoin="round" stroke-width="1.5"/></g><line y1="3.572" fill="none" stroke="#92999c" stroke-linejoin="round" stroke-width="1.5"/><line y1="3.572" transform="translate(4.648)" fill="none" stroke="#92999c" stroke-linejoin="round" stroke-width="1.5"/></g><g transform="translate(9.338 33.737)"><line y1="3.572" transform="translate(0 5.716)" fill="none" stroke="#92999c" stroke-linejoin="round" stroke-width="1.5"/><line y1="3.572" fill="none" stroke="#92999c" stroke-linejoin="round" stroke-width="1.5"/></g><g transform="translate(15.802 32.763)"><line y1="3.572" transform="translate(0 5.716)" fill="none" stroke="#92999c" stroke-linejoin="round" stroke-width="1.5"/><line y1="3.572" fill="none" stroke="#92999c" stroke-linejoin="round" stroke-width="1.5"/></g><line y2="33.254" transform="translate(0 15.519)" fill="none" stroke="#92999c" stroke-linecap="round" stroke-linejoin="round" stroke-width="1.5"/><line x1="6.105" transform="translate(0 48.773)" fill="none" stroke="#92999c" stroke-linecap="round" stroke-linejoin="round" stroke-width="1.5"/></g><g transform="translate(45.652 13.665)"><rect width="12.929" height="22.732" transform="translate(4.268 26.04)" fill="none" stroke="#92999c" stroke-linecap="round" stroke-linejoin="round" stroke-width="1.5"/><rect width="12.929" height="11.561" transform="translate(4.268 14.479)" fill="none" stroke="#92999c" stroke-linecap="round" stroke-linejoin="round" stroke-width="1.5"/><path d="M592.224 330.532H585.76V307.8l6.465 1.948z" transform="translate(-568.563 -281.76)" fill="none" stroke="#92999c" stroke-linecap="round" stroke-linejoin="round" stroke-width="1.5"/><path d="M592.224 239.819l-6.465-1.948V226.31l6.465 1.039z" transform="translate(-568.563 -211.831)" fill="none" stroke="#92999c" stroke-linecap="round" stroke-linejoin="round" stroke-width="1.5"/><rect width="6.464" height="20.784" transform="translate(23.662 27.989)" fill="none" stroke="#92999c" stroke-linecap="round" stroke-linejoin="round" stroke-width="1.5"/><rect width="6.464" height="12.47" transform="translate(23.662 15.519)" fill="none" stroke="#92999c" stroke-linecap="round" stroke-linejoin="round" stroke-width="1.5"/><path d="M464.541 124.248l25.314 11.691 10.918 3.828h-6.105" transform="translate(-464.541 -124.248)" fill="none" stroke="#92999c" stroke-linecap="round" stroke-linejoin="round" stroke-width="1.5"/><g transform="translate(8.409 18.474)"><line y1="3.572" transform="translate(4.648)" fill="none" stroke="#92999c" stroke-linejoin="round" stroke-width="1.5"/><line y1="3.572" fill="none" stroke="#92999c" stroke-linejoin="round" stroke-width="1.5"/></g><line y1="3.572" transform="translate(26.894 19.968)" fill="none" stroke="#92999c" stroke-linejoin="round" stroke-width="1.5"/><line y1="3.572" transform="translate(20.429 19.448)" fill="none" stroke="#92999c" stroke-linejoin="round" stroke-width="1.5"/><g transform="translate(8.409 32.763)"><g transform="translate(0 5.716)"><line y1="3.572" transform="translate(4.648)" fill="none" stroke="#92999c" stroke-linejoin="round" stroke-width="1.5"/><line y1="3.572" fill="none" stroke="#92999c" stroke-linejoin="round" stroke-width="1.5"/></g><line y1="3.572" transform="translate(4.648)" fill="none" stroke="#92999c" stroke-linejoin="round" stroke-width="1.5"/><line y1="3.572" fill="none" stroke="#92999c" stroke-linejoin="round" stroke-width="1.5"/></g><g transform="translate(26.894 33.737)"><line y1="3.572" transform="translate(0 5.716)" fill="none" stroke="#92999c" stroke-linejoin="round" stroke-width="1.5"/><line y1="3.572" fill="none" stroke="#92999c" stroke-linejoin="round" stroke-width="1.5"/></g><g transform="translate(20.429 32.763)"><line y1="3.572" transform="translate(0 5.716)" fill="none" stroke="#92999c" stroke-linejoin="round" stroke-width="1.5"/><line y1="3.572" transform="translate(0)" fill="none" stroke="#92999c" stroke-linejoin="round" stroke-width="1.5"/></g><line y2="33.254" transform="translate(36.231 15.519)" fill="none" stroke="#92999c" stroke-linecap="round" stroke-linejoin="round" stroke-width="1.5"/><line x2="6.105" transform="translate(30.126 48.773)" fill="none" stroke="#92999c" stroke-linecap="round" stroke-linejoin="round" stroke-width="1.5"/></g><line y1="3.572" transform="translate(35.231 52.055)" fill="none" stroke="#92999c" stroke-linejoin="round" stroke-width="1.5"/><line y1="3.572" transform="translate(46.652 52.055)" fill="none" stroke="#92999c" stroke-linejoin="round" stroke-width="1.5"/></g><g transform="translate(0 62.438)"><g transform="translate(39.505 4.685)"><line x1="17.925" transform="translate(0)" fill="none" stroke="#92999c" stroke-linejoin="round" stroke-width="1.5"/><line x1="17.925" transform="translate(0 4.298)" fill="none" stroke="#92999c" stroke-linejoin="round" stroke-width="1.5"/><line x1="17.925" transform="translate(0 8.596)" fill="none" stroke="#92999c" stroke-linejoin="round" stroke-width="1.5"/><line x1="17.925" transform="translate(0 12.895)" fill="none" stroke="#92999c" stroke-linejoin="round" stroke-width="1.5"/></g><path d="M343.011 468.034v9.058h-4.14l.718-9.058z" transform="translate(-303.538 -468.034)" fill="none" stroke="#92999c" stroke-linejoin="round" stroke-width="1.5"/><rect width="39.505" height="8.521" transform="translate(39.505 17.58) rotate(-180)" fill="none" stroke="#92999c" stroke-linejoin="round" stroke-width="1.5"/><path d="M170.925 472.719h-28.17v-4.685" transform="translate(-135.245 -468.034)" fill="none" stroke="#92999c" stroke-linejoin="round" stroke-width="1.5"/><path d="M125.377 501.057H122.5v4.373h30.7v8.521" transform="translate(-117.867 -496.372)" fill="none" stroke="#92999c" stroke-linejoin="round" stroke-width="1.5"/><g transform="translate(57.398)"><path d="M494.627 468.034v9.058h4.14l-.718-9.058z" transform="translate(-494.596 -468.034)" fill="none" stroke="#92999c" stroke-linejoin="round" stroke-width="1.5"/><rect width="39.505" height="8.521" transform="translate(0 9.058)" fill="none" stroke="#92999c" stroke-linejoin="round" stroke-width="1.5"/><path d="M521.367 472.719h28.17v-4.685" transform="translate(-517.542 -468.034)" fill="none" stroke="#92999c" stroke-linejoin="round" stroke-width="1.5"/><path d="M551.634 501.057h2.873v4.373h-30.7v8.521" transform="translate(-519.639 -496.372)" fill="none" stroke="#92999c" stroke-linejoin="round" stroke-width="1.5"/></g></g></g><line x2="111.09" transform="translate(0 80.017)" fill="none" stroke="#92999c" stroke-linecap="round" stroke-linejoin="round" stroke-width="1.5"/></g><g transform="translate(259.646 -253.638)"><rect width="6.615" height="13.334" transform="translate(23.89 24.445)" fill="none" stroke="#92999c" stroke-linecap="round" stroke-linejoin="round" stroke-width="1.5"/><path d="M1753.053 15.991h-10.142l-.394-3.333h10.93z" transform="translate(-1720.784 25.122)" fill="none" stroke="#92999c" stroke-linecap="round" stroke-linejoin="round" stroke-width="1.5"/><path d="M1759.965-101.492h-7.4l-.394-3.333h8.192z" transform="translate(-1729.066 125.938)" fill="none" stroke="#92999c" stroke-linecap="round" stroke-linejoin="round" stroke-width="1.5"/><rect width="4.408" height="13.334" transform="translate(24.993 7.778)" fill="none" stroke="#92999c" stroke-linecap="round" stroke-linejoin="round" stroke-width="1.5"/><path d="M1769.924-227.92c0-1.227.706-2.222 1.577-2.222s1.577 1 1.577 2.222v2.222h-3.153z" transform="translate(-1744.303 233.475)" fill="none" stroke="#92999c" stroke-linecap="round" stroke-linejoin="round" stroke-width="1.5"/><line y1="3.333" transform="translate(27.197)" fill="none" stroke="#92999c" stroke-linecap="round" stroke-linejoin="round" stroke-width="1.5"/><path d="M1722.575 36.154s.315 48.635-4.888 61.08" transform="translate(-1699.477 4.959)" fill="none" stroke="#92999c" stroke-linecap="round" stroke-linejoin="round" stroke-width="1.5"/><path d="M1809.913 36.154s-.315 48.635 4.888 61.08" transform="translate(-1778.616 4.959)" fill="none" stroke="#92999c" stroke-linecap="round" stroke-linejoin="round" stroke-width="1.5"/><path d="M1788.641 36.154s-.346 48.588 3.152 61.08" transform="translate(-1760.357 4.959)" fill="none" stroke="#92999c" stroke-linecap="round" stroke-linejoin="round" stroke-width="1.5"/><path d="M1754.315 36.154s.345 48.588-3.152 61.08" transform="translate(-1728.204 4.959)" fill="none" stroke="#92999c" stroke-linecap="round" stroke-linejoin="round" stroke-width="1.5"/><path d="M1759.64 454.721h0a5.529 5.529.0 00-8.477.0h0" transform="translate(-1728.204 -352.529)" fill="none" stroke="#92999c" stroke-linecap="round" stroke-linejoin="round" stroke-width="1.5"/><path d="M1844.39 454.721h0c1.872-2.638 4.435-2.638 6.307.0h0" transform="translate(-1808.205 -352.529)" fill="none" stroke="#92999c" stroke-linecap="round" stroke-linejoin="round" stroke-width="1.5"/><path d="M1679.537 454.721h0c-1.872-2.638-4.435-2.638-6.307.0h0" transform="translate(-1661.328 -352.529)" fill="none" stroke="#92999c" stroke-linecap="round" stroke-linejoin="round" stroke-width="1.5"/><path d="M1722.436 458.327h0a2.73 2.73.0 00-4.749.0h0" transform="translate(-1699.477 -356.135)" fill="none" stroke="#92999c" stroke-linecap="round" stroke-linejoin="round" stroke-width="1.5"/><path d="M1836.307 466.689h0c-2.523 5.175-1.376 14.175 2.618 17.778" transform="translate(-1800.122 -364.497)" fill="none" stroke="#92999c" stroke-linecap="round" stroke-linejoin="round" stroke-width="1.5"/><path d="M1810.914 458.327h0a2.731 2.731.0 014.749.0" transform="translate(-1779.478 -356.135)" fill="none" stroke="#92999c" stroke-linecap="round" stroke-linejoin="round" stroke-width="1.5"/><path d="M1684.211 466.689" transform="translate(-1670.751 -364.497)" fill="none" stroke="#92999c" stroke-linecap="round" stroke-linejoin="round" stroke-width="1.5"/><path d="M1804.365 466.689a26.174 26.174.0 001.051 17.778" transform="translate(-1772.93 -364.497)" fill="none" stroke="#92999c" stroke-linecap="round" stroke-linejoin="round" stroke-width="1.5"/><path d="M1744.807 466.689a26.174 26.174.0 01-1.051 17.778" transform="translate(-1721.848 -364.497)" fill="none" stroke="#92999c" stroke-linecap="round" stroke-linejoin="round" stroke-width="1.5"/><path d="M1867.731 466.689c-6.307.0-3.689 17.778 4.809 17.778" transform="translate(-1825.239 -364.497)" fill="none" stroke="#92999c" stroke-linecap="round" stroke-linejoin="round" stroke-width="1.5"/><path d="M1701.849 466.689h0c2.523 5.175 1.376 14.175-2.618 17.778" transform="translate(-1683.64 -364.497)" fill="none" stroke="#92999c" stroke-linecap="round" stroke-linejoin="round" stroke-width="1.5"/><path d="M1644.141 466.689c6.307.0 3.689 17.778-4.809 17.778" transform="translate(-1632.238 -364.497)" fill="none" stroke="#92999c" stroke-linecap="round" stroke-linejoin="round" stroke-width="1.5"/><line x2="54.395" transform="translate(0 119.971)" fill="none" stroke="#92999c" stroke-linecap="round" stroke-linejoin="round" stroke-width="1.5"/><line y1="13.334" transform="translate(26.12 24.445)" fill="none" stroke="#92999c" stroke-linecap="round" stroke-linejoin="round" stroke-width="1.5"/><line y1="13.334" transform="translate(28.275 24.445)" fill="none" stroke="#92999c" stroke-linecap="round" stroke-linejoin="round" stroke-width="1.5"/><line y1="13.334" transform="translate(27.197 7.778)" fill="none" stroke="#92999c" stroke-linecap="round" stroke-linejoin="round" stroke-width="1.5"/><path d="M1734.927 388.109a40.441 40.441.0 0113.007.0" transform="translate(-1714.271 -296.613)" fill="none" stroke="#92999c" stroke-linecap="round" stroke-linejoin="round" stroke-width="1.5"/><path d="M1745.869 272.217a47.434 47.434.0 019.979.0" transform="translate(-1723.661 -197.389)" fill="none" stroke="#92999c" stroke-linecap="round" stroke-linejoin="round" stroke-width="1.5"/><path d="M1750.736 156.326h8.6" transform="translate(-1727.838 -98.165)" fill="none" stroke="#92999c" stroke-linecap="round" stroke-linejoin="round" stroke-width="1.5"/></g><g transform="translate(150.941 -215.349)"><g transform="translate(7.093 0)"><g transform="translate(70.397)"><g transform="translate(15.983)"><rect width="4.855" height="44.262" transform="translate(1.618 26.609)" fill="none" stroke="#92999c" stroke-linecap="round" stroke-linejoin="round" stroke-width="1.5"/><rect width="4.855" height="6.372" transform="translate(1.618 20.237)" fill="none" stroke="#92999c" stroke-linecap="round" stroke-linejoin="round" stroke-width="1.5"/><path d="M1498.221 55.76h-4.854l2.427-17.051z" transform="translate(-1491.748 -35.524)" fill="none" stroke="#92999c" stroke-linecap="round" stroke-linejoin="round" stroke-width="1.5"/><path d="M1490.051 526.6h-8.091l1.618-10.8h4.855z" transform="translate(-1481.96 -444.931)" fill="none" stroke="#92999c" stroke-linecap="round" stroke-linejoin="round" stroke-width="1.5"/><g transform="translate(4.045)"><line y1="3.186" fill="none" stroke="#92999c" stroke-linecap="round" stroke-linejoin="round" stroke-width="1.5"/></g></g><g transform="translate(0 14.78)"><path d="M1373.348 305l-4.045-8.179V278.048h4.045z" transform="translate(-1369.303 -255.687)" fill="none" stroke="#92999c" stroke-linecap="round" stroke-linejoin="round" stroke-width="1.5"/><rect width="4.045" height="5.31" transform="translate(0 17.051)" fill="none" stroke="#92999c" stroke-linecap="round" stroke-linejoin="round" stroke-width="1.5"/><path d="M1373.348 156.756H1369.3l2.023-13.865z" transform="translate(-1369.303 -139.706)" fill="none" stroke="#92999c" stroke-linecap="round" stroke-linejoin="round" stroke-width="1.5"/><g transform="translate(2.023)"><line y1="3.186" fill="none" stroke="#92999c" stroke-linecap="round" stroke-linejoin="round" stroke-width="1.5"/></g></g></g><rect width="4.855" height="44.262" transform="translate(6.473 70.871) rotate(180)" fill="none" stroke="#92999c" stroke-linecap="round" stroke-linejoin="round" stroke-width="1.5"/><rect width="4.855" height="6.372" transform="translate(6.473 26.609) rotate(-180)" fill="none" stroke="#92999c" stroke-linecap="round" stroke-linejoin="round" stroke-width="1.5"/><path d="M884.5 55.76h4.855l-2.428-17.05z" transform="translate(-882.882 -35.524)" fill="none" stroke="#92999c" stroke-linecap="round" stroke-linejoin="round" stroke-width="1.5"/><path d="M873.094 526.6h8.091l-1.618-10.8h-4.854z" transform="translate(-873.094 -444.931)" fill="none" stroke="#92999c" stroke-linecap="round" stroke-linejoin="round" stroke-width="1.5"/><g transform="translate(4.045)"><line y1="3.186" fill="none" stroke="#92999c" stroke-linecap="round" stroke-linejoin="round" stroke-width="1.5"/></g><g transform="translate(20.028 14.78)"><path d="M1014.266 305l4.045-8.179V278.048h-4.045z" transform="translate(-1014.266 -255.687)" fill="none" stroke="#92999c" stroke-linecap="round" stroke-linejoin="round" stroke-width="1.5"/><rect width="4.045" height="5.31" transform="translate(4.045 22.361) rotate(-180)" fill="none" stroke="#92999c" stroke-linecap="round" stroke-linejoin="round" stroke-width="1.5"/><path d="M1014.266 156.756h4.045l-2.023-13.865z" transform="translate(-1014.266 -139.706)" fill="none" stroke="#92999c" stroke-linecap="round" stroke-linejoin="round" stroke-width="1.5"/><g transform="translate(2.023)"><line y1="3.186" fill="none" stroke="#92999c" stroke-linecap="round" stroke-linejoin="round" stroke-width="1.5"/></g></g></g><g transform="translate(15.184 45.916)"><path d="M930.125 375.657 969.269 339.9l39.144 35.758z" transform="translate(-930.125 -339.899)" fill="none" stroke="#92999c" stroke-linecap="round" stroke-linejoin="round" stroke-width="1.5"/><path d="M1206.042 339.9l23.161 10 10.071 20.358z" transform="translate(-1166.898 -339.899)" fill="none" stroke="#92999c" stroke-linecap="round" stroke-linejoin="round" stroke-width="1.5"/><path d="M1005.034 339.9l-23.161 10L971.8 370.256z" transform="translate(-965.89 -339.899)" fill="none" stroke="#92999c" stroke-linecap="round" stroke-linejoin="round" stroke-width="1.5"/><g transform="translate(12.849 7.434)"><g transform="translate(26.295)"><line y1="28.324" fill="none" stroke="#92999c" stroke-linecap="round" stroke-linejoin="round" stroke-width="1.5"/></g><g transform="translate(31.554 4.702)"><line y1="23.622" fill="none" stroke="#92999c" stroke-linecap="round" stroke-linejoin="round" stroke-width="1.5"/></g><g transform="translate(36.813 9.608)"><line y1="18.716" fill="none" stroke="#92999c" stroke-linecap="round" stroke-linejoin="round" stroke-width="1.5"/></g><g transform="translate(42.072 14.412)"><line y1="13.912" transform="translate(0)" fill="none" stroke="#92999c" stroke-linecap="round" stroke-linejoin="round" stroke-width="1.5"/></g><g transform="translate(47.331 19.216)"><line y1="9.108" fill="none" stroke="#92999c" stroke-linecap="round" stroke-linejoin="round" stroke-width="1.5"/></g><g transform="translate(52.59 24.02)"><line y1="4.304" fill="none" stroke="#92999c" stroke-linecap="round" stroke-linejoin="round" stroke-width="1.5"/></g><g transform="translate(21.036 4.804)"><line y1="23.52" transform="translate(0)" fill="none" stroke="#92999c" stroke-linecap="round" stroke-linejoin="round" stroke-width="1.5"/></g><g transform="translate(15.777 9.608)"><line y1="18.716" fill="none" stroke="#92999c" stroke-linecap="round" stroke-linejoin="round" stroke-width="1.5"/></g><g transform="translate(10.518 14.412)"><line y1="13.912" fill="none" stroke="#92999c" stroke-linecap="round" stroke-linejoin="round" stroke-width="1.5"/></g><g transform="translate(5.259 19.216)"><line y1="9.108" transform="translate(0)" fill="none" stroke="#92999c" stroke-linecap="round" stroke-linejoin="round" stroke-width="1.5"/></g><g transform="translate(0 24.02)"><line y1="4.304" fill="none" stroke="#92999c" stroke-linecap="round" stroke-linejoin="round" stroke-width="1.5"/></g></g></g><path d="M1168.973 301.878l2.872-8.932 2.387 6.661z" transform="translate(-1119.903 -253.692)" fill="none" stroke="#92999c" stroke-linecap="round" stroke-linejoin="round" stroke-width="1.5"/><path d="M1211.3 301.878l-2.872-8.932-2.387 6.661z" transform="translate(-1151.714 -253.692)" fill="none" stroke="#92999c" stroke-linecap="round" stroke-linejoin="round" stroke-width="1.5"/><g transform="translate(54.329 35.548)"><line y1="10.137" fill="none" stroke="#92999c" stroke-linecap="round" stroke-linejoin="round" stroke-width="1.5"/></g><line x2="108.657" transform="translate(0 81.674)" fill="none" stroke="#92999c" stroke-linecap="round" stroke-linejoin="round" stroke-width="1.5"/></g><g transform="translate(313.848 -186.972)"><line x2="110.264" transform="translate(0 53.268)" fill="none" stroke="#92999c" stroke-linecap="round" stroke-linejoin="round" stroke-width="1.5"/><g transform="translate(7.093)"><path d="M2064.8 274.107c0-33.279 14.122-49.007 32.94-52.513" transform="translate(-2058.642 -220.839)" fill="none" stroke="#92999c" stroke-linecap="round" stroke-linejoin="round" stroke-width="1.5"/><path d="M2039.715 269.541c0-27.835 8.768-44.772 21.962-53.268-22.37.56-40.294 15.776-40.294 53.268z" transform="translate(-2021.383 -216.273)" fill="none" stroke="#92999c" stroke-linecap="round" stroke-linejoin="round" stroke-width="1.5"/><path d="M2093.239 310.172c0-21.818 5.387-36.94 14.07-46.55-12.38 6.982-20.834 21.718-21.217 46.551z" transform="translate(-2076.911 -256.905)" fill="none" stroke="#92999c" stroke-linecap="round" stroke-linejoin="round" stroke-width="1.5" stroke-dasharray="12 24"/></g><g transform="translate(29.346 2.032)"><path d="M2206.494 301.541c0-24.507 6.8-39.052 17.427-47.977" transform="translate(-2202.485 -250.306)" fill="none" stroke="#92999c" stroke-linecap="round" stroke-linejoin="round" stroke-width="1.5"/><path d="M2178.237 281.832c0-27.75 8.714-42.726 21.841-51.236h0a393.832 393.832.0 00-2.368 43.345q0 4.005.079 7.977z" transform="translate(-2178.237 -230.596)" fill="none" stroke="#92999c" stroke-linecap="round" stroke-linejoin="round" stroke-width="1.5"/><path d="M2243.279 353.419q-.077-3.924-.077-7.884.0-16.044 1.243-31.51c-6.077 8.96-9.691 21.532-9.691 39.4z" transform="translate(-2226.736 -302.189)" fill="none" stroke="#92999c" stroke-linecap="round" stroke-linejoin="round" stroke-width="1.5" stroke-dasharray="12 20"/></g><g transform="translate(62.876)"><path d="M2423 221.594c18.818 3.506 32.94 19.234 32.94 52.513" transform="translate(-2421.809 -220.839)" fill="none" stroke="#92999c" stroke-linecap="round" stroke-linejoin="round" stroke-width="1.5"/><path d="M2454.877 269.541c0-37.492-17.924-52.708-40.294-53.268 13.194 8.5 21.962 25.432 21.962 53.268z" transform="translate(-2414.583 -216.273)" fill="none" stroke="#92999c" stroke-linecap="round" stroke-linejoin="round" stroke-width="1.5"/><path d="M2505.563 310.173c-.384-24.833-8.838-39.569-21.217-46.551 8.683 9.611 14.07 24.732 14.07 46.55z" transform="translate(-2474.449 -256.905)" fill="none" stroke="#92999c" stroke-linecap="round" stroke-linejoin="round" stroke-width="1.5" stroke-dasharray="12 24"/></g><g transform="translate(59.077 2.032)"><path d="M2390.661 253.564c10.629 8.926 17.426 23.47 17.426 47.977" transform="translate(-2390.256 -250.306)" fill="none" stroke="#92999c" stroke-linecap="round" stroke-linejoin="round" stroke-width="1.5"/><path d="M2409.643 281.832c0-27.75-8.714-42.726-21.841-51.236h0a393.832 393.832.0 012.368 43.345q0 4.005-.079 7.977z" transform="translate(-2387.802 -230.596)" fill="none" stroke="#92999c" stroke-linecap="round" stroke-linejoin="round" stroke-width="1.5"/><path d="M2426.62 353.425c0-17.868-3.613-30.439-9.691-39.4q1.23 15.441 1.243 31.51.0 3.959-.078 7.884z" transform="translate(-2412.796 -302.189)" fill="none" stroke="#92999c" stroke-linecap="round" stroke-linejoin="round" stroke-width="1.5" stroke-dasharray="12 20"/></g><path d="M2346.885 413.614h-5.192a171.241 171.241.0 012.6-29.4A171.291 171.291.0 012346.885 413.614z" transform="translate(-2289.158 -360.391)" fill="none" stroke="#92999c" stroke-linecap="round" stroke-linejoin="round" stroke-width="1.5"/></g><g transform="translate(423.958 -215.349)"><path d="M2854.808 258.151h-57.287l3.37-55.185h11.373v8.83h27.8v-8.83h11.373z" transform="translate(-2790.427 -176.477)" fill="none" stroke="#92999c" stroke-linecap="round" stroke-linejoin="round" stroke-width="1.5"/><path d="M2856.9 42.741c0-14.629 9.052-26.489 20.219-26.489s20.219 11.86 20.219 26.489h-6.318v8.83h-27.8v-8.83z" transform="translate(-2841.385 -16.252)" fill="none" stroke="#92999c" stroke-linecap="round" stroke-linejoin="round" stroke-width="1.5"/><path d="M2861.82 147.646a177.8 177.8.0 0139.043.0" transform="translate(-2845.604 -128.083)" fill="none" stroke="#92999c" stroke-linecap="round" stroke-linejoin="round" stroke-width="1.5"/><g transform="translate(34.326 23.576)" fill="none" stroke="#92999c" stroke-linecap="round" stroke-linejoin="round" stroke-width="1.5"><rect width="2.275" height="5.96" stroke="none"/><rect x=".75" y=".75" width=".775" height="4.46" fill="none"/></g><g transform="translate(30.914 23.576)" fill="none" stroke="#92999c" stroke-linecap="round" stroke-linejoin="round" stroke-width="1.5"><rect width="2.275" height="5.96" stroke="none"/><rect x=".75" y=".75" width=".775" height="4.46" fill="none"/></g><g transform="translate(37.738 23.576)" fill="none" stroke="#92999c" stroke-linecap="round" stroke-linejoin="round" stroke-width="1.5"><rect width="2.275" height="5.96" stroke="none"/><rect x=".75" y=".75" width=".775" height="4.46" fill="none"/></g><path d="M2967.463 423.117h-12.637c-.164-11.741 1.8-19.613 5.241-27.114a1.126 1.126.0 012.155.0C2965.664 403.5 2967.628 411.376 2967.463 423.117z" transform="translate(-2925.408 -341.443)" fill="none" stroke="#92999c" stroke-linecap="round" stroke-linejoin="round" stroke-width="1.5"/><g transform="translate(25.358 44.756)"><path d="M2937.563 331.975a1.86 1.86.0 00-.92-.247h0a1.885 1.885.0 00-.946.262.423.423.0 00-.145.491.291.291.0 00.259.221.218.218.0 00.115-.032 1.431 1.431.0 01.718-.2 1.4 1.4.0 01.7.188c.145.08.311-.007.373-.2A.425.425.0 002937.563 331.975zm2.134 3.628c-.272-.632-.558-1.279-.849-1.922a.249.249.0 00-.388-.13.44.44.0 00-.1.509c.288.637.572 1.28.842 1.907a.282.282.0 00.248.192.238.238.0 00.138-.048A.439.439.0 002939.7 335.6zm-4.885-2.024a.25.25.0 00-.389.13c-.29.641-.576 1.288-.847 1.922a.439.439.0 00.108.506.238.238.0 00.138.048.283.283.0 00.249-.19c.27-.628.552-1.269.84-1.907A.439.439.0 002934.812 333.579zm6.469 5.953c-.247-.656-.507-1.322-.772-1.978a.254.254.0 00-.383-.154.433.433.0 00-.118.5c.263.65.521 1.31.765 1.959a.287.287.0 00.255.208.228.228.0 00.125-.039A.431.431.0 002941.281 339.532zm-8.133-2.108a.255.255.0 00-.383.156c-.266.658-.525 1.323-.772 1.978a.429.429.0 00.129.5.228.228.0 00.125.039.283.283.0 00.253-.208c.246-.649.5-1.307.767-1.959A.438.438.0 002933.148 337.425zm9.548 6.147c-.219-.677-.448-1.361-.684-2.033a.262.262.0 00-.377-.182.427.427.0 00-.139.493c.234.667.461 1.344.678 2.013a.293.293.0 00.261.227.223.223.0 00.11-.03A.42.42.0 002942.7 343.571zm-11.057-2.19c-.143-.086-.31.0-.375.184-.236.675-.467 1.359-.685 2.033a.42.42.0 00.152.487.216.216.0 00.109.03.3.3.0 00.262-.227c.216-.669.442-1.346.676-2.015A.426.426.0 002931.639 341.382zm12.28 6.336c-.185-.7-.384-1.4-.587-2.087-.057-.191-.221-.286-.367-.212a.417.417.0 00-.162.481c.2.68.4 1.375.582 2.063a.3.3.0 00.267.249.25.25.0 00.1-.02A.408.408.0 002943.919 347.718zm-13.61-2.269c-.146-.074-.311.02-.368.212-.2.69-.4 1.392-.585 2.087a.407.407.0 00.173.474.22.22.0 00.093.022.3.3.0 00.269-.249c.185-.689.38-1.383.582-2.065A.418.418.0 002930.309 345.448zm14.632 6.509c-.152-.71-.314-1.427-.485-2.132-.046-.2-.205-.3-.356-.242a.4.4.0 00-.185.466c.167.7.33 1.405.479 2.108a.308.308.0 00.272.271.2.2.0 00.078-.015A.4.4.0 002944.941 351.957zm-15.766-2.342c-.149-.061-.31.046-.356.242-.169.7-.332 1.42-.484 2.132a.4.4.0 00.2.459.233.233.0 00.079.013.308.308.0 00.272-.271c.15-.7.312-1.414.479-2.108A.4.4.0 002929.175 349.616zm16.582 6.658c-.12-.725-.249-1.453-.383-2.167-.037-.2-.191-.32-.343-.271a.392.392.0 00-.208.45c.134.706.262 1.427.379 2.145a.314.314.0 00.276.294.222.222.0 00.06-.009A.383.383.0 002945.757 356.273zm-17.511-2.407c-.151-.048-.306.073-.344.273-.134.714-.262 1.442-.381 2.165a.386.386.0 00.218.442.209.209.0 00.059.008.314.314.0 00.277-.294c.118-.716.244-1.437.377-2.143A.391.391.0 002928.246 353.866zm18.126 6.777c-.086-.732-.181-1.47-.283-2.191-.029-.2-.178-.335-.331-.3a.376.376.0 00-.227.433c.1.714.194 1.444.279 2.169a.322.322.0 00.281.316.19.19.0 00.044-.006A.37.37.0 002946.373 360.643zm-18.853-2.457c-.153-.037-.3.1-.33.3-.1.719-.2 1.457-.283 2.191a.371.371.0 00.237.424.382.382.0 00.044.0.32.32.0 00.281-.314c.085-.728.179-1.457.28-2.171A.377.377.0 002927.52 358.186zm19.089 4.658c-.019-.2-.162-.349-.316-.323a.364.364.0 00-.246.416c.069.717.133 1.453.19 2.188a.326.326.0 00.281.335.176.176.0 00.03.0.358.358.0 00.253-.407C2946.743 364.31 2946.679 363.566 2946.608 362.844zm-19.619-.29c-.156-.026-.3.119-.318.322-.069.727-.134 1.468-.191 2.208a.359.359.0 00.254.407.165.165.0 00.03.0.326.326.0 00.281-.334c.056-.732.12-1.468.19-2.188A.367.367.0 002926.989 362.553zm19.961 4.708c-.014-.2-.15-.357-.306-.342a.352.352.0 00-.261.4c.025.437.048.881.069 1.327h.567C2947 368.182 2946.976 367.719 2946.951 367.261zm-20.315-.309c-.156-.017-.292.138-.3.342-.025.444-.05.9-.069 1.351h.567c.02-.435.042-.868.068-1.3A.354.354.0 002926.636 366.953z" transform="translate(-2926.263 -331.728)" stroke="#92999c" stroke-width="1.5"/></g><path d="M2747.523 591.954H2819" transform="translate(-2747.523 -510.28)" fill="none" stroke="#92999c" stroke-linecap="round" stroke-linejoin="round" stroke-width="1.5"/></g></g></svg>