<svg xmlns="http://www.w3.org/2000/svg" width="421.021" height="178.456" viewBox="0 0 421.021 178.456"><g transform="translate(-72 -82.617)"><path d="M72 246.924h32.753s1.908-80.577 22.577-126.91c0 0 21.623 42.879 22.259 126.91h17.171V180.8h8.974V134.755H200.61v22.766l15.97.128v89.275h18.09V72.851h10.481V246.924h11.284V72.851h11.66V246.924h15.052s-.954-137.269 27.029-156.263c0 0 23.213-7.194 26.394 156.263h25.439l7.314-41.44-10.2-52.6" transform="translate(0 13.299)" fill="none" stroke="#92999c" stroke-miterlimit="10" stroke-width="1.7"/><ellipse cx="18.493" cy="8.003" rx="18.493" ry="8.003" transform="translate(358.868 157.085)" fill="none" stroke="#92999c" stroke-miterlimit="10" stroke-width="1.7"/><path d="M938 336.747H908.533V323.671s-22.259-52.872.0-104.607H858.714s22.79 50.6.0 104.323v13.36H840.907l-8.056-41.123 8.039-54.346" transform="translate(-444.979 -76.524)" fill="none" stroke="#92999c" stroke-miterlimit="10" stroke-width="1.7"/><line x2="16.324" transform="translate(425.395 244.536)" fill="none" stroke="#92999c" stroke-miterlimit="10" stroke-width="1.7"/><line x2="16.324" transform="translate(435.041 255.348)" fill="none" stroke="#92999c" stroke-miterlimit="10" stroke-width="1.7"/><line y2="32.859" transform="translate(428.893 109.475)" fill="none" stroke="#92999c" stroke-miterlimit="10" stroke-width="1.7"/><line y2="8.904" transform="translate(449.138 133.539)" fill="none" stroke="#92999c" stroke-miterlimit="10" stroke-width="1.7"/><line x2="3.178" y2="20.024" transform="translate(388.888 171.282)" fill="none" stroke="#92999c" stroke-miterlimit="10" stroke-width="1.7"/><line x2="7.984" y2="47.742" transform="translate(379.888 172.282)" fill="none" stroke="#92999c" stroke-miterlimit="10" stroke-width="1.7"/><line x2="15.288" y2="86.67" transform="translate(370.888 172.282)" fill="none" stroke="#92999c" stroke-miterlimit="10" stroke-width="1.7"/><line x2="8.536" y2="48.942" transform="translate(367.888 211.282)" fill="none" stroke="#92999c" stroke-miterlimit="10" stroke-width="1.7"/><line x2="52.849" y2=".571" transform="translate(283.32 241.558)" fill="none" stroke="#92999c" stroke-miterlimit="10" stroke-width="1.7"/><line x2="52.849" y2=".571" transform="translate(307.628 228.468)" fill="none" stroke="#92999c" stroke-miterlimit="10" stroke-width="1.7"/><line x2="34.241" y2=".571" transform="translate(279.221 218.213)" fill="none" stroke="#92999c" stroke-miterlimit="10" stroke-width="1.7"/><line x2="41.595" y2=".434" transform="translate(306.493 204.106)" fill="none" stroke="#92999c" stroke-miterlimit="10" stroke-width="1.7"/><line x2="58.828" transform="translate(280.179 189.969)" fill="none" stroke="#92999c" stroke-miterlimit="10" stroke-width="1.7"/><line x2="34.286" transform="translate(293.004 175.745)" fill="none" stroke="#92999c" stroke-miterlimit="10" stroke-width="1.7"/><line x2="40.809" transform="translate(300 162.963)" fill="none" stroke="#92999c" stroke-miterlimit="10" stroke-width="1.7"/><line x2="37.417" transform="translate(295.018 150.95)" fill="none" stroke="#92999c" stroke-miterlimit="10" stroke-width="1.7"/><line x2="40.809" transform="translate(300 135.188)" fill="none" stroke="#92999c" stroke-miterlimit="10" stroke-width="1.7"/><line y2="158.941" transform="translate(310.148 82.617)" fill="none" stroke="#92999c" stroke-miterlimit="10" stroke-width="1.7"/><line x2=".145" y2="115.276" transform="translate(296.888 126.282)" fill="none" stroke="#92999c" stroke-miterlimit="10" stroke-width="1.7"/><line x1=".092" y2="115.276" transform="translate(323.796 126.282)" fill="none" stroke="#92999c" stroke-miterlimit="10" stroke-width="1.7"/><path d="M463.83 149.719l10.481-7h11.283l11.66 7" transform="translate(-229.159 -30.714)" fill="none" stroke="#92999c" stroke-miterlimit="10" stroke-width="1.7"/><path d="M463.83 73.723l10.481 7h11.283l11.66-7" transform="translate(-229.159 12.789)" fill="none" stroke="#92999c" stroke-miterlimit="10" stroke-width="1.7"/><line x2="33.778" transform="translate(176.019 240.862)" fill="none" stroke="#92999c" stroke-miterlimit="10" stroke-width="1.7"/><line x2="33.778" transform="translate(176.019 232.558)" fill="none" stroke="#92999c" stroke-miterlimit="10" stroke-width="1.7"/><line x2="33.778" transform="translate(176.019 224.255)" fill="none" stroke="#92999c" stroke-miterlimit="10" stroke-width="1.7"/><line x2="33.778" transform="translate(176.019 220.083)" fill="none" stroke="#92999c" stroke-miterlimit="10" stroke-width="1.7"/><line x2="33.778" transform="translate(176.019 212.555)" fill="none" stroke="#92999c" stroke-miterlimit="10" stroke-width="1.7"/><line x2="33.778" transform="translate(176.019 205.026)" fill="none" stroke="#92999c" stroke-miterlimit="10" stroke-width="1.7"/><line x2="40.844" transform="translate(175.736 193.973)" fill="none" stroke="#92999c" stroke-miterlimit="10" stroke-width="1.7"/><line x2="28.125" transform="translate(181.106 186.285)" fill="none" stroke="#92999c" stroke-miterlimit="10" stroke-width="1.7"/><line x2="28.125" transform="translate(181.106 178.38)" fill="none" stroke="#92999c" stroke-miterlimit="10" stroke-width="1.7"/><line x2="14.062" transform="translate(181.106 161.425)" fill="none" stroke="#92999c" stroke-miterlimit="10" stroke-width="1.7"/><line x2="14.062" transform="translate(181.106 153.521)" fill="none" stroke="#92999c" stroke-miterlimit="10" stroke-width="1.7"/><line x1=".25" y2="21.543" transform="translate(187.888 126.739)" fill="none" stroke="#92999c" stroke-miterlimit="10" stroke-width="1.7"/><line x2="20.488" transform="translate(117.26 163.267)" fill="none" stroke="#92999c" stroke-miterlimit="10" stroke-width="1.7"/><line x2="29.416" transform="translate(112.907 183.283)" fill="none" stroke="#92999c" stroke-miterlimit="10" stroke-width="1.7"/><line x2="33.174" transform="translate(111.061 193.973)" fill="none" stroke="#92999c" stroke-miterlimit="10" stroke-width="1.7"/><line x2="35.493" transform="translate(109.907 201.616)" fill="none" stroke="#92999c" stroke-miterlimit="10" stroke-width="1.7"/><line x2="37.666" transform="translate(108.808 209.811)" fill="none" stroke="#92999c" stroke-miterlimit="10" stroke-width="1.7"/><line x2="39.544" transform="translate(107.837 218.033)" fill="none" stroke="#92999c" stroke-miterlimit="10" stroke-width="1.7"/><line x2="41.224" transform="translate(106.94 223.327)" fill="none" stroke="#92999c" stroke-miterlimit="10" stroke-width="1.7"/><line x2="42.557" transform="translate(106.197 232.664)" fill="none" stroke="#92999c" stroke-miterlimit="10" stroke-width="1.7"/><line x2="16.324" transform="translate(425.395 222.536)" fill="none" stroke="#92999c" stroke-miterlimit="10" stroke-width="1.7"/><line x2="16.324" transform="translate(435.041 233.348)" fill="none" stroke="#92999c" stroke-miterlimit="10" stroke-width="1.7"/><line x2="16.323" transform="translate(424.395 200.536)" fill="none" stroke="#92999c" stroke-miterlimit="10" stroke-width="1.7"/><line x2="16.323" transform="translate(435.041 211.348)" fill="none" stroke="#92999c" stroke-miterlimit="10" stroke-width="1.7"/><line x2="16.324" transform="translate(425.395 177.536)" fill="none" stroke="#92999c" stroke-miterlimit="10" stroke-width="1.7"/><line x2="16.324" transform="translate(435.041 188.348)" fill="none" stroke="#92999c" stroke-miterlimit="10" stroke-width="1.7"/><line x2="16.324" transform="translate(425.395 155.536)" fill="none" stroke="#92999c" stroke-miterlimit="10" stroke-width="1.7"/><line x2="16.324" transform="translate(435.041 166.348)" fill="none" stroke="#92999c" stroke-miterlimit="10" stroke-width="1.7"/></g></svg>